<?xml version="1.0" encoding="utf-8"?>
<!-- Generator: Adobe Illustrator 16.0.0, SVG Export Plug-In . SVG Version: 6.00 Build 0)  -->
<!DOCTYPE svg PUBLIC "-//W3C//DTD SVG 1.1//EN" "http://www.w3.org/Graphics/SVG/1.1/DTD/svg11.dtd">
<svg version="1.1" id="Layer_1" xmlns="http://www.w3.org/2000/svg" xmlns:xlink="http://www.w3.org/1999/xlink" x="0px" y="0px"
	 width="800px" height="500px" viewBox="0 0 800 500" enable-background="new 0 0 800 500" xml:space="preserve">
<g>
	<path fill-rule="evenodd" clip-rule="evenodd" fill="#0C78A8" d="M40.873,209.373c0-1.689,0.557-3.134,1.72-4.38
		c1.147-1.227,2.522-1.817,4.104-1.817h50.12c5.616,0,10.754,0.817,15.37,2.443c4.611,1.66,8.527,4.527,11.799,8.636
		c3.241,4.123,4.862,9.212,4.862,15.291c0,6.69-2.789,12.439-8.316,17.188c7.932,4.488,11.888,11.769,11.843,21.835
		c0,8.988-3.147,15.922-9.468,20.848c-6.286,4.93-14.021,7.402-23.193,7.402c-11.853,0-23.744,0-35.627,0v17.656h82.407
		c0-42.32,0-86.613,0-128.95H23.223c0,30.878,0,62.767,0,93.626h17.65V209.373L40.873,209.373z M163.933,332.146
		c-38.741,0-78.462,0-117.236,0c-1.581,0-2.956-0.617-4.104-1.813c-1.152-1.18-1.72-2.629-1.72-4.324v-29.191l-35.03,0.039H5.779
		c-1.581-0.039-2.916-0.633-4.059-1.813C0.572,293.849,0,292.423,0,290.716c0-38.552,0-77.58,0-116.153
		c0-1.694,0.571-3.123,1.72-4.335c1.748-1.793,2.896-2.374,5.108-2.374h157.04h0.064c1.581,0.044,2.921,0.837,4.059,2.374
		c1.153,1.552,1.734,3.463,1.734,5.695c0,48.726,0,99.445,0,148.156C169.726,327.576,167.977,332.146,163.933,332.146
		L163.933,332.146z M99.339,279.15c-11.749,0-23.493,0-35.253,0c0-19.438,0-38.865,0-58.31h32.977c2.582,0,4.65,0.794,6.223,2.39
		c1.551,1.641,2.335,3.867,2.335,6.72c0,2.882-0.784,5.108-2.335,6.704c-1.572,1.572-3.641,2.38-6.223,2.38H72.924v17.644h26.415
		c3.183,0,5.606,1.004,7.291,3.016c1.685,2.008,2.507,4.77,2.507,8.215c0,3.5-0.822,6.227-2.492,8.246
		C104.97,278.154,102.556,279.15,99.339,279.15z"/>
	<path fill-rule="evenodd" clip-rule="evenodd" fill="#5B5B5C" d="M606.372,290.787l16.395-62.118
		c4.426-16.892,18.848-25.375,43.277-25.42h35.188c1.582,0,2.926,0.611,4,1.833c1.082,1.212,1.613,2.616,1.613,4.231v81.485
		c0,1.691-0.598,3.121-1.848,4.266c-1.227,1.152-2.664,1.742-4.367,1.742h-12.273c-1.793,0-3.258-0.59-4.391-1.742
		c-1.133-1.145-1.73-2.613-1.73-4.387v-16.461h-46.207l-4.391,16.473c-0.445,1.773-1.402,3.23-2.953,4.383
		c-1.523,1.145-3.109,1.734-4.844,1.734h-12.867c-1.676,0-2.992-0.59-3.863-1.773c-0.594-0.797-0.887-1.656-0.887-2.668
		C606.223,291.88,606.309,291.357,606.372,290.787L606.372,290.787z M640.989,255.771h41.246v-34.078h-18.516
		c-4.16,0-7.77,1.178-10.906,3.547c-3.074,2.414-5.164,5.592-6.246,9.592L640.989,255.771z"/>
	<path fill-rule="evenodd" clip-rule="evenodd" fill="#5B5B5C" d="M412.047,290.677v-81.231c0-1.694,0.602-3.152,1.766-4.364
		c1.191-1.222,2.621-1.833,4.297-1.833h53.852c9.953,0,18.129,2.676,24.496,8.021c6.359,5.345,9.555,12.558,9.555,21.651
		c0,12.65-8.215,20.573-24.582,23.808c2.543,0.992,4.961,2.641,7.199,4.965c2.246,2.293,4.781,5.664,7.68,10.117l11.855,18.84
		c0.75,1.262,1.105,2.355,1.105,3.27c0,0.395-0.059,0.75-0.18,1.113c-0.445,1.184-1.492,1.773-3.199,1.773h-15.676
		c-1.707,0-3.527-0.609-5.469-1.82c-1.969-1.176-3.465-2.621-4.508-4.336l-11.086-17.352c-4.535-7.152-10.063-10.699-16.574-10.699
		h-15.918v28.051c0,1.715-0.598,3.16-1.824,4.336c-1.16,1.211-2.625,1.82-4.301,1.82h-12.273c-1.707,0-3.133-0.609-4.367-1.82
		C412.68,293.81,412.047,292.365,412.047,290.677L412.047,290.677z M436.661,244.132h27.809c4.418,0,8.359-0.877,11.828-2.67
		c3.406-1.778,5.133-4.631,5.133-8.542c0-3.927-1.727-6.759-5.133-8.543c-3.402-1.808-7.379-2.685-11.828-2.685h-27.809V244.132z"/>
	<path fill-rule="evenodd" clip-rule="evenodd" fill="#5B5B5C" d="M319.392,285.595c-8.572-7.469-12.839-19.359-12.839-35.605
		c0-16.247,4.267-28.104,12.839-35.588c8.557-7.478,21.089-11.227,37.592-11.227c16.533,0,29.061,3.749,37.587,11.227
		c8.539,7.483,12.789,19.341,12.789,35.588c0,16.246-4.25,28.137-12.789,35.605c-8.527,7.488-21.054,11.223-37.587,11.223
		C340.48,296.818,327.948,293.083,319.392,285.595L319.392,285.595z M336.51,227.634c-4.241,5.005-6.35,12.469-6.35,22.385
		c0,9.92,2.108,17.389,6.35,22.381c4.252,4.988,11.08,7.488,20.474,7.488c9.435,0,16.257-2.5,20.474-7.488
		c4.213-4.992,6.311-12.461,6.311-22.381c0-9.916-2.098-17.38-6.311-22.385c-4.217-5.021-11.039-7.522-20.474-7.522
		C347.59,220.112,340.762,222.614,336.51,227.634z"/>
	<path fill-rule="evenodd" clip-rule="evenodd" fill="#5B5B5C" d="M711.504,290.798V209.58c0-1.794,0.629-3.286,1.852-4.498
		c1.227-1.222,2.656-1.833,4.359-1.833h12.277c1.676,0,3.102,0.611,4.301,1.833c1.191,1.212,1.82,2.704,1.82,4.498v68.773h57.762
		c1.711,0,3.137,0.609,4.336,1.832c1.164,1.211,1.789,2.672,1.789,4.355v6.137c0,1.688-0.598,3.133-1.789,4.348
		c-1.199,1.172-2.66,1.781-4.336,1.781h-76.16c-1.703,0-3.133-0.59-4.359-1.742C712.133,293.919,711.504,292.49,711.504,290.798z"/>
	<path fill-rule="evenodd" clip-rule="evenodd" fill="#5B5B5C" d="M514.047,290.541v-81.228c0-1.709,0.598-3.123,1.82-4.301
		c1.227-1.182,2.691-1.764,4.363-1.764h75.211c1.699,0,3.137,0.611,4.324,1.833c1.203,1.212,1.793,2.67,1.793,4.364v6.124
		c0,1.685-0.59,3.133-1.793,4.345c-1.188,1.163-2.625,1.778-4.324,1.778h-56.813v18.977h48.922c1.707,0,3.168,0.601,4.332,1.798
		c1.223,1.192,1.816,2.655,1.816,4.34v6.136c0,1.715-0.594,3.172-1.816,4.363c-1.164,1.215-2.625,1.793-4.332,1.793h-48.922v19.254
		h56.688c1.672,0,3.109,0.582,4.27,1.742c1.145,1.195,1.734,2.613,1.734,4.328v6.254c0,1.688-0.625,3.133-1.852,4.348
		c-1.223,1.172-2.656,1.781-4.363,1.781h-74.875c-1.672,0-3.137-0.609-4.363-1.82C514.645,293.81,514.047,292.314,514.047,290.541z"
		/>
	<path fill-rule="evenodd" clip-rule="evenodd" fill="#5B5B5C" d="M205.032,209.446c0-1.694,0.591-3.152,1.817-4.364
		c1.237-1.222,2.686-1.833,4.36-1.833h53.021c5.976,0,11.375,0.818,16.276,2.464c4.862,1.626,9.03,4.513,12.483,8.601
		c3.429,4.124,5.133,9.198,5.133,15.292c0,6.675-2.926,12.395-8.778,17.158c8.39,4.497,12.577,11.758,12.532,21.805
		c0,8.988-3.335,15.902-10.02,20.82c-6.661,4.926-14.848,7.418-24.528,7.418h-28.897V279.15h28.483c3.404,0,5.971-1.016,7.739-3.004
		c1.759-2.012,2.636-4.738,2.636-8.227c0-3.457-0.877-6.207-2.66-8.207c-1.788-2.012-4.354-3.016-7.715-3.016h-28.483v-17.619
		h26.065c2.743,0,4.945-0.808,6.596-2.394c1.646-1.582,2.468-3.809,2.468-6.69c0-2.853-0.822-5.079-2.468-6.689
		c-1.65-1.611-3.853-2.419-6.596-2.419h-34.884v18.192v17.619v22.453v17.656H211.21c-1.675,0-3.123-0.609-4.36-1.801
		c-1.227-1.195-1.817-2.641-1.817-4.316V209.446z"/>
	<polygon fill-rule="evenodd" clip-rule="evenodd" fill="#A5A8AB" points="214.377,331.673 214.377,309.408 205.032,309.408 
		205.032,306.087 227.339,306.087 227.339,309.408 217.993,309.408 217.993,331.673 	"/>
	<polygon fill-rule="evenodd" clip-rule="evenodd" fill="#A5A8AB" points="233.088,331.673 233.088,306.087 248.398,306.087 
		248.398,309.337 236.693,309.337 236.693,317.103 248.068,317.103 248.068,320.412 236.693,320.412 236.693,328.392 
		248.768,328.392 248.768,331.673 	"/>
	<path fill-rule="evenodd" clip-rule="evenodd" fill="#A5A8AB" d="M277.783,325.626v4.129c-1.478,0.777-3.015,1.359-4.537,1.773
		c-1.557,0.422-3.073,0.617-4.601,0.617c-1.463,0-2.853-0.195-4.178-0.59c-1.315-0.383-2.571-0.957-3.733-1.695
		c-1.897-1.262-3.38-2.836-4.42-4.777c-1.049-1.93-1.571-4.039-1.571-6.305c0-1.727,0.345-3.391,1.03-5.027
		c0.685-1.594,1.675-3.004,2.94-4.215c1.364-1.293,2.887-2.277,4.571-2.898c1.69-0.648,3.553-0.973,5.597-0.973
		c1.438,0,2.872,0.168,4.276,0.492c1.404,0.336,2.867,0.848,4.419,1.566v3.969c-1.611-0.855-3.134-1.516-4.552-1.941
		c-1.424-0.414-2.794-0.641-4.144-0.641c-2.971,0-5.414,0.938-7.359,2.809c-1.941,1.852-2.912,4.18-2.912,7.008
		c0,2.758,0.956,5.074,2.867,6.926c1.911,1.871,4.315,2.797,7.202,2.797c1.493,0,2.966-0.234,4.493-0.75
		C274.676,327.388,276.237,326.662,277.783,325.626z"/>
	<polygon fill-rule="evenodd" clip-rule="evenodd" fill="#A5A8AB" points="284.715,331.673 284.715,306.087 288.346,306.087 
		288.346,317.103 303.021,317.103 303.021,306.087 306.627,306.087 306.627,331.673 303.021,331.673 303.021,320.552 
		288.346,320.552 288.346,331.673 	"/>
	<polygon fill-rule="evenodd" clip-rule="evenodd" fill="#A5A8AB" points="314.819,331.673 314.819,306.087 317.987,306.087 
		334.762,325.958 334.762,306.087 338.357,306.087 338.357,331.673 335.136,331.673 318.436,311.802 318.436,331.673 	"/>
	<path fill-rule="evenodd" clip-rule="evenodd" fill="#A5A8AB" d="M349.053,318.927c0,1.301,0.236,2.52,0.729,3.734
		c0.493,1.18,1.183,2.227,2.089,3.133c0.901,0.914,1.931,1.605,3.123,2.125c1.197,0.496,2.448,0.73,3.749,0.73
		c1.33,0,2.586-0.227,3.749-0.719c1.163-0.473,2.227-1.191,3.138-2.137c0.912-0.906,1.616-1.953,2.089-3.133
		c0.508-1.215,0.749-2.434,0.749-3.734c0-1.32-0.241-2.555-0.719-3.727c-0.493-1.152-1.207-2.215-2.153-3.191
		c-0.911-0.938-1.956-1.656-3.133-2.148c-1.168-0.492-2.404-0.75-3.72-0.75c-1.271,0-2.492,0.258-3.66,0.77
		c-1.192,0.484-2.271,1.191-3.212,2.129c-0.906,0.887-1.596,1.93-2.089,3.125C349.289,316.333,349.053,317.595,349.053,318.927
		L349.053,318.927z M345.186,318.779c0-1.707,0.34-3.371,1.024-4.977c0.704-1.605,1.694-3.043,2.961-4.266
		c1.296-1.262,2.764-2.219,4.403-2.867c1.631-0.66,3.365-1.004,5.168-1.004c1.843,0,3.587,0.344,5.247,1.004
		c1.649,0.648,3.104,1.625,4.369,2.867c1.315,1.301,2.315,2.719,2.985,4.316c0.66,1.574,1.005,3.328,1.005,5.16
		c0,1.746-0.345,3.422-1.029,5.035c-0.689,1.598-1.66,3.004-2.911,4.246c-1.346,1.254-2.813,2.219-4.454,2.859
		c-1.625,0.66-3.359,0.992-5.212,0.992c-1.803,0-3.537-0.352-5.197-1.023c-1.65-0.648-3.123-1.605-4.374-2.828
		c-1.311-1.289-2.301-2.758-2.971-4.344C345.525,322.326,345.186,320.611,345.186,318.779z"/>
	<polygon fill-rule="evenodd" clip-rule="evenodd" fill="#A5A8AB" points="379.275,331.673 379.275,306.087 382.891,306.087 
		382.891,328.392 394.985,328.392 394.985,331.673 	"/>
	<path fill-rule="evenodd" clip-rule="evenodd" fill="#A5A8AB" d="M401.886,318.927c0,1.301,0.267,2.52,0.728,3.734
		c0.496,1.18,1.18,2.227,2.113,3.133c0.875,0.914,1.914,1.605,3.109,2.125c1.199,0.496,2.453,0.73,3.766,0.73
		s2.566-0.227,3.734-0.719c1.168-0.473,2.211-1.191,3.133-2.137c0.902-0.906,1.613-1.953,2.094-3.133
		c0.508-1.215,0.746-2.434,0.746-3.734c0-1.32-0.238-2.555-0.719-3.727c-0.508-1.152-1.219-2.215-2.148-3.191
		c-0.93-0.938-1.938-1.656-3.141-2.148c-1.16-0.492-2.414-0.75-3.699-0.75s-2.512,0.258-3.672,0.77
		c-1.195,0.484-2.27,1.191-3.203,2.129c-0.934,0.887-1.617,1.93-2.113,3.125C402.153,316.333,401.886,317.595,401.886,318.927
		L401.886,318.927z M398.019,318.779c0-1.707,0.345-3.371,1.045-4.977c0.689-1.605,1.674-3.043,2.941-4.266
		c1.304-1.262,2.792-2.219,4.397-2.867c1.641-0.66,3.379-1.004,5.199-1.004s3.586,0.344,5.227,1.004
		c1.641,0.648,3.109,1.625,4.387,2.867c1.316,1.301,2.301,2.719,2.957,4.316c0.695,1.574,1.02,3.328,1.02,5.16
		c0,1.746-0.359,3.422-1.043,5.035c-0.66,1.598-1.652,3.004-2.898,4.246c-1.348,1.254-2.809,2.219-4.457,2.859
		c-1.605,0.66-3.371,0.992-5.191,0.992s-3.559-0.352-5.227-1.023c-1.648-0.648-3.109-1.605-4.37-2.828
		c-1.316-1.289-2.301-2.758-2.972-4.344C398.364,322.326,398.019,320.611,398.019,318.779z"/>
	<path fill-rule="evenodd" clip-rule="evenodd" fill="#A5A8AB" d="M453.688,319.123v10.859c-1.676,0.727-3.258,1.258-4.75,1.625
		c-1.527,0.344-2.957,0.539-4.305,0.539c-1.52,0-2.988-0.195-4.301-0.57c-1.371-0.375-2.598-0.934-3.73-1.695
		c-1.883-1.238-3.344-2.828-4.391-4.758c-1.043-1.922-1.586-4.039-1.586-6.344c0-1.727,0.359-3.391,1.047-5.027
		c0.688-1.594,1.672-3.004,2.926-4.215c1.379-1.301,2.871-2.277,4.539-2.938c1.703-0.609,3.59-0.934,5.676-0.934
		c1.43,0,2.844,0.168,4.273,0.52c1.434,0.348,2.895,0.859,4.359,1.539v3.969c-1.613-0.855-3.105-1.516-4.543-1.941
		c-1.402-0.414-2.773-0.641-4.117-0.641c-2.988,0-5.441,0.938-7.379,2.809c-1.938,1.852-2.898,4.18-2.898,7.008
		c0,2.758,0.961,5.074,2.871,6.926c1.914,1.871,4.301,2.797,7.223,2.797c0.867,0,1.738-0.09,2.629-0.277
		c0.84-0.207,1.766-0.492,2.691-0.875v-4.945h-4.777v-3.43H453.688z"/>
	<rect x="461.274" y="306.087" fill-rule="evenodd" clip-rule="evenodd" fill="#A5A8AB" width="3.645" height="25.586"/>
	<polygon fill-rule="evenodd" clip-rule="evenodd" fill="#A5A8AB" points="473.219,331.673 473.219,306.087 488.508,306.087 
		488.508,309.337 476.836,309.337 476.836,317.103 488.18,317.103 488.18,320.412 476.836,320.412 476.836,328.392 488.899,328.392 
		488.899,331.673 	"/>
	<path fill-rule="evenodd" clip-rule="evenodd" fill="#A5A8AB" d="M494.934,329.685v-4.797c1.164,1.309,2.266,2.266,3.309,2.848
		c1.047,0.59,2.156,0.875,3.348,0.875c1.262,0,2.27-0.285,2.988-0.887s1.074-1.379,1.074-2.383c0-0.848-0.234-1.578-0.715-2.199
		c-0.48-0.648-1.672-1.547-3.527-2.73c-2.867-1.859-4.684-3.32-5.402-4.344c-0.75-1.023-1.105-2.234-1.105-3.656
		c0-2,0.715-3.625,2.09-4.914c1.41-1.262,3.227-1.914,5.438-1.914c0.957,0,1.941,0.16,2.898,0.445
		c0.957,0.277,1.91,0.738,2.867,1.32v4.156c-1.105-0.887-2.125-1.555-3.078-1.961c-0.953-0.402-1.914-0.609-2.84-0.609
		c-1.133,0-2.059,0.266-2.809,0.855c-0.707,0.563-1.066,1.281-1.066,2.18c0,1.281,1.512,2.855,4.477,4.73l0.531,0.324
		c2.449,1.527,4.066,2.875,4.816,4.059c0.742,1.145,1.137,2.59,1.137,4.305c0,1.961-0.719,3.578-2.125,4.828
		c-1.402,1.281-3.195,1.93-5.402,1.93c-1.379,0-2.602-0.195-3.707-0.59C497.024,331.173,495.973,330.541,494.934,329.685z"/>
</g>
</svg>
